<svg width="96" height="96" viewBox="0 0 96 96" fill="none" xmlns="http://www.w3.org/2000/svg">
<circle cx="48" cy="48" r="48" fill="#27496D"/>
<path fill-rule="evenodd" clip-rule="evenodd" d="M0.384156 41.8983C0.753901 38.9838 1.38499 36.1509 2.25319 33.4237H53.7547L45.6887 23H56.7264L76 48L56.6415 73H45.6887L53.9245 62.4915H2.2263C1.37195 59.7904 0.750072 56.986 0.384155 54.1017H60.4623L60.8868 53.5932C61.6792 52.6328 62.3868 51.8136 63.0094 51.1356C63.6321 50.4576 64.1698 49.8927 64.6226 49.4407C65.1321 48.9322 65.6132 48.5085 66.066 48.1695V47.9153C65.6132 47.5763 65.1038 47.1525 64.5377 46.6441C64.0849 46.1921 63.5189 45.5989 62.8396 44.8644C62.1604 44.1299 61.4245 43.2542 60.6321 42.2373L60.3774 41.8983H0.384156Z" fill="white"/>
</svg>
