<?xml version="1.0" standalone="no"?>
<!DOCTYPE svg PUBLIC "-//W3C//DTD SVG 20010904//EN"
 "http://www.w3.org/TR/2001/REC-SVG-20010904/DTD/svg10.dtd">
<svg version="1.0" xmlns="http://www.w3.org/2000/svg"
 width="700.000000pt" height="700.000000pt" viewBox="0 0 700.000000 700.000000"
 preserveAspectRatio="xMidYMid meet">
<metadata>
Created by potrace 1.11, written by Peter Selinger 2001-2013
</metadata>
<g transform="translate(0.000000,700.000000) scale(0.100000,-0.100000)"
fill="#000000" stroke="none">
<path d="M3240 6489 c-546 -48 -1086 -252 -1519 -574 -486 -361 -855 -858
-1046 -1407 l-34 -98 1610 0 1611 0 -49 63 c-28 34 -137 175 -243 312 -106
138 -197 256 -203 263 -7 9 61 12 335 12 l345 0 602 -780 601 -780 -602 -779
-603 -780 -344 0 c-273 -1 -341 2 -334 11 111 139 493 631 493 634 0 2 -724 4
-1610 4 l-1609 0 35 -102 c140 -401 390 -794 705 -1109 1014 -1011 2587 -1168
3779 -376 619 411 1060 1033 1245 1752 341 1330 -264 2720 -1470 3379 -511
279 -1115 406 -1695 355z"/>
<path d="M513 3793 c-4 -49 -8 -180 -8 -293 0 -113 4 -244 8 -292 l9 -88 1878
0 1878 0 88 102 c49 56 129 142 178 191 l89 88 -44 37 c-61 52 -190 187 -257
271 l-57 71 -1877 0 -1876 0 -9 -87z"/>
</g>
</svg>
